<svg width="703" height="566" viewBox="0 0 703 566" fill="none" xmlns="http://www.w3.org/2000/svg">
<path d="M259.93 360.709H239.128V397.233H188.788V360.709H113.358V323.232L191.964 208.261H239.128V322.597H259.93V360.709ZM188.788 322.597V300.682C188.788 296.554 188.947 290.996 189.264 284.008C189.582 277.021 189.741 273.369 189.9 272.892H188.47C185.612 279.562 182.277 285.755 178.466 291.472L157.504 322.597H188.788Z" fill="#5E5BB3"/>
<path d="M409.838 303.064C409.838 336.571 404.28 361.026 393.005 376.589C381.73 392.151 364.58 399.932 341.554 399.932C319.004 399.932 302.012 391.834 290.42 375.477C278.986 359.28 273.27 334.983 273.27 303.064C273.27 269.399 278.828 244.785 290.102 229.064C301.377 213.342 318.528 205.561 341.554 205.561C364.103 205.561 381.095 213.66 392.528 230.016C404.121 246.373 409.838 270.828 409.838 303.064ZM324.086 303.064C324.086 324.502 325.356 339.112 328.056 347.211C330.755 355.151 335.202 359.28 341.554 359.28C347.906 359.28 352.511 355.151 355.052 346.893C357.751 338.636 359.022 324.026 359.022 303.223C359.022 282.262 357.751 267.652 355.052 259.236C352.352 250.819 347.906 246.69 341.554 246.69C335.202 246.69 330.755 250.819 328.056 258.918C325.515 266.699 324.086 281.468 324.086 303.064Z" fill="#5E5BB3"/>
<path d="M570.385 360.709H549.582V397.233H499.083V360.709H423.653V323.232L502.259 208.261H549.423V322.597H570.226V360.709H570.385ZM499.083 322.597V300.682C499.083 296.554 499.242 290.996 499.56 284.008C499.877 277.021 500.036 273.369 500.195 272.892H498.766C495.907 279.562 492.573 285.755 488.761 291.472L467.8 322.597H499.083Z" fill="#5E5BB3"/>
<path d="M37.6104 250.184H113.993" stroke="black" stroke-width="2.1628" stroke-miterlimit="10" stroke-linecap="round" stroke-linejoin="round"/>
<path d="M132.255 250.184H148.612" stroke="black" stroke-width="2.1628" stroke-miterlimit="10" stroke-linecap="round" stroke-linejoin="round"/>
<path d="M23.6362 228.746H160.522" stroke="black" stroke-width="2.1628" stroke-miterlimit="10" stroke-linecap="round" stroke-linejoin="round"/>
<path d="M12.3612 228.746H1.08643" stroke="black" stroke-width="2.1628" stroke-miterlimit="10" stroke-linecap="round" stroke-linejoin="round"/>
<path d="M23.6362 208.261H69.053" stroke="black" stroke-width="2.1628" stroke-miterlimit="10" stroke-linecap="round" stroke-linejoin="round"/>
<path d="M81.2803 208.261H176.719" stroke="black" stroke-width="2.1628" stroke-miterlimit="10" stroke-linecap="round" stroke-linejoin="round"/>
<path d="M577.848 420.894H659.63" stroke="black" stroke-width="2.1628" stroke-miterlimit="10" stroke-linecap="round" stroke-linejoin="round"/>
<path d="M672.969 420.894H684.72" stroke="black" stroke-width="2.1628" stroke-miterlimit="10" stroke-linecap="round" stroke-linejoin="round"/>
<path d="M594.205 399.456H701.395" stroke="black" stroke-width="2.1628" stroke-miterlimit="10" stroke-linecap="round" stroke-linejoin="round"/>
<path d="M586.106 399.456H577.848" stroke="black" stroke-width="2.1628" stroke-miterlimit="10" stroke-linecap="round" stroke-linejoin="round"/>
<path d="M577.848 378.971H627.076" stroke="black" stroke-width="2.1628" stroke-miterlimit="10" stroke-linecap="round" stroke-linejoin="round"/>
<path d="M635.969 378.971H672.969" stroke="black" stroke-width="2.1628" stroke-miterlimit="10" stroke-linecap="round" stroke-linejoin="round"/>
<path d="M269.776 360.074H248.973V396.598H198.475V360.074H123.045V322.597L201.651 207.625H248.815V321.962H269.776V360.074ZM198.475 321.962V300.047C198.475 295.918 198.634 290.36 198.951 283.373C199.269 276.386 199.428 272.733 199.587 272.257H198.316C195.458 278.927 192.123 285.12 188.312 290.837L167.35 321.962H198.475Z" stroke="black" stroke-width="3.2675" stroke-miterlimit="10"/>
<path d="M419.683 302.429C419.683 335.936 414.125 360.391 402.85 375.954C391.576 391.516 374.425 399.297 351.399 399.297C328.85 399.297 311.858 391.198 300.266 374.842C288.832 358.644 283.115 334.348 283.115 302.429C283.115 268.763 288.673 244.15 299.948 228.428C311.223 212.707 328.373 204.926 351.399 204.926C373.949 204.926 390.94 213.025 402.374 229.381C413.966 245.737 419.683 270.034 419.683 302.429ZM333.931 302.429C333.931 323.867 335.202 338.477 337.901 346.576C340.601 354.516 345.047 358.644 351.399 358.644C357.751 358.644 362.356 354.515 364.897 346.258C367.597 338 368.867 323.391 368.867 302.588C368.867 281.626 367.597 267.017 364.897 258.6C362.198 250.184 357.751 246.055 351.399 246.055C345.047 246.055 340.601 250.184 337.901 258.283C335.202 265.905 333.931 280.832 333.931 302.429Z" stroke="black" stroke-width="3.2675" stroke-miterlimit="10"/>
<path d="M580.23 360.074H559.427V396.598H508.929V360.074H433.499V322.597L512.105 207.625H559.269V321.962H580.071V360.074H580.23ZM508.929 321.962V300.047C508.929 295.918 509.088 290.36 509.405 283.373C509.723 276.386 509.882 272.733 510.041 272.257H508.611C505.753 278.927 502.418 285.12 498.607 290.837L477.804 321.962H508.929Z" stroke="black" stroke-width="3.2675" stroke-miterlimit="10"/>
<path d="M228.952 465.192C227.208 465.192 225.752 464.824 224.584 464.088C223.432 463.336 222.568 462.312 221.992 461.016C221.432 459.704 221.152 458.208 221.152 456.528C221.152 454.864 221.44 453.384 222.016 452.088C222.592 450.776 223.456 449.744 224.608 448.992C225.776 448.224 227.24 447.84 229 447.84C230.248 447.84 231.32 448.04 232.216 448.44C233.128 448.824 233.864 449.36 234.424 450.048C234.984 450.736 235.368 451.544 235.576 452.472H233.464C233.224 451.64 232.704 450.976 231.904 450.48C231.12 449.984 230.128 449.736 228.928 449.736C227.584 449.736 226.496 450.056 225.664 450.696C224.848 451.32 224.248 452.144 223.864 453.168C223.48 454.176 223.288 455.272 223.288 456.456C223.288 457.704 223.488 458.848 223.888 459.888C224.288 460.928 224.912 461.76 225.76 462.384C226.608 462.992 227.688 463.296 229 463.296C229.8 463.296 230.512 463.184 231.136 462.96C231.776 462.736 232.304 462.416 232.72 462C233.152 461.584 233.448 461.104 233.608 460.56H235.888C235.648 461.488 235.216 462.304 234.592 463.008C233.984 463.696 233.208 464.232 232.264 464.616C231.32 465 230.216 465.192 228.952 465.192ZM241.833 465V454.152H237.489V452.352H248.217V454.152H243.873V465H241.833ZM250.038 469.56V452.352H251.982L252.078 454.296C252.51 453.608 253.094 453.088 253.83 452.736C254.582 452.384 255.39 452.208 256.254 452.208C257.534 452.208 258.582 452.496 259.398 453.072C260.214 453.632 260.814 454.4 261.198 455.376C261.598 456.352 261.798 457.456 261.798 458.688C261.798 459.92 261.598 461.024 261.198 462C260.798 462.976 260.182 463.744 259.35 464.304C258.518 464.864 257.454 465.144 256.158 465.144C255.518 465.144 254.942 465.08 254.43 464.952C253.918 464.808 253.47 464.608 253.086 464.352C252.702 464.096 252.366 463.808 252.078 463.488V469.56H250.038ZM255.99 463.344C256.918 463.344 257.654 463.136 258.198 462.72C258.742 462.288 259.134 461.72 259.374 461.016C259.63 460.312 259.758 459.536 259.758 458.688C259.758 457.824 259.63 457.04 259.374 456.336C259.134 455.632 258.734 455.072 258.174 454.656C257.614 454.24 256.87 454.032 255.942 454.032C255.11 454.032 254.398 454.248 253.806 454.68C253.23 455.096 252.79 455.664 252.486 456.384C252.182 457.088 252.03 457.864 252.03 458.712C252.03 459.592 252.174 460.384 252.462 461.088C252.75 461.792 253.19 462.344 253.782 462.744C254.374 463.144 255.11 463.344 255.99 463.344ZM268.484 465.144C267.908 465.144 267.348 465.072 266.804 464.928C266.276 464.768 265.796 464.536 265.364 464.232C264.948 463.912 264.612 463.52 264.356 463.056C264.116 462.576 263.996 462.024 263.996 461.4C263.996 460.68 264.124 460.072 264.38 459.576C264.652 459.08 265.012 458.688 265.46 458.4C265.908 458.112 266.428 457.904 267.02 457.776C267.612 457.648 268.228 457.584 268.868 457.584H272.588C272.588 456.864 272.484 456.24 272.276 455.712C272.084 455.184 271.764 454.776 271.316 454.488C270.868 454.184 270.276 454.032 269.54 454.032C269.092 454.032 268.676 454.08 268.292 454.176C267.908 454.272 267.58 454.424 267.308 454.632C267.036 454.84 266.836 455.12 266.708 455.472H264.524C264.636 454.896 264.852 454.408 265.172 454.008C265.508 453.592 265.908 453.256 266.372 453C266.852 452.728 267.364 452.528 267.908 452.4C268.452 452.272 268.996 452.208 269.54 452.208C270.756 452.208 271.732 452.456 272.468 452.952C273.204 453.432 273.74 454.12 274.076 455.016C274.412 455.896 274.58 456.944 274.58 458.16V465H272.876L272.756 463.392C272.404 463.872 271.98 464.24 271.484 464.496C270.988 464.752 270.476 464.92 269.948 465C269.436 465.096 268.948 465.144 268.484 465.144ZM268.676 463.344C269.476 463.344 270.164 463.216 270.74 462.96C271.332 462.688 271.788 462.296 272.108 461.784C272.428 461.272 272.588 460.648 272.588 459.912V459.288H270.356C269.828 459.288 269.308 459.296 268.796 459.312C268.284 459.328 267.82 459.392 267.404 459.504C266.988 459.616 266.652 459.808 266.396 460.08C266.156 460.352 266.036 460.744 266.036 461.256C266.036 461.736 266.156 462.128 266.396 462.432C266.652 462.736 266.98 462.968 267.38 463.128C267.796 463.272 268.228 463.344 268.676 463.344ZM277.741 465V452.352H279.781V457.896H286.117V452.352H288.157V465H286.117V459.696H279.781V465H277.741ZM291.381 465V452.352H293.421V462.048C293.533 461.824 293.685 461.584 293.877 461.328C294.069 461.056 294.221 460.848 294.333 460.704L300.453 452.352H302.469V465H300.429V455.304C300.301 455.544 300.157 455.768 299.997 455.976C299.853 456.184 299.717 456.376 299.589 456.552L293.373 465H291.381ZM315.566 468.888V465H305.678V452.352H307.718V463.224H313.838V452.352H315.902V463.224H317.558V468.888H315.566ZM323.75 465.144C323.174 465.144 322.614 465.072 322.07 464.928C321.542 464.768 321.062 464.536 320.63 464.232C320.214 463.912 319.878 463.52 319.622 463.056C319.382 462.576 319.262 462.024 319.262 461.4C319.262 460.68 319.39 460.072 319.646 459.576C319.918 459.08 320.278 458.688 320.726 458.4C321.174 458.112 321.694 457.904 322.286 457.776C322.878 457.648 323.494 457.584 324.134 457.584H327.854C327.854 456.864 327.75 456.24 327.542 455.712C327.35 455.184 327.03 454.776 326.582 454.488C326.134 454.184 325.542 454.032 324.806 454.032C324.358 454.032 323.942 454.08 323.558 454.176C323.174 454.272 322.846 454.424 322.574 454.632C322.302 454.84 322.102 455.12 321.974 455.472H319.79C319.902 454.896 320.118 454.408 320.438 454.008C320.774 453.592 321.174 453.256 321.638 453C322.118 452.728 322.63 452.528 323.174 452.4C323.718 452.272 324.262 452.208 324.806 452.208C326.022 452.208 326.998 452.456 327.734 452.952C328.47 453.432 329.006 454.12 329.342 455.016C329.678 455.896 329.846 456.944 329.846 458.16V465H328.142L328.022 463.392C327.67 463.872 327.246 464.24 326.75 464.496C326.254 464.752 325.742 464.92 325.214 465C324.702 465.096 324.214 465.144 323.75 465.144ZM323.942 463.344C324.742 463.344 325.43 463.216 326.006 462.96C326.598 462.688 327.054 462.296 327.374 461.784C327.694 461.272 327.854 460.648 327.854 459.912V459.288H325.622C325.094 459.288 324.574 459.296 324.062 459.312C323.55 459.328 323.086 459.392 322.67 459.504C322.254 459.616 321.918 459.808 321.662 460.08C321.422 460.352 321.302 460.744 321.302 461.256C321.302 461.736 321.422 462.128 321.662 462.432C321.918 462.736 322.246 462.968 322.646 463.128C323.062 463.272 323.494 463.344 323.942 463.344ZM339.475 465V452.352H341.515V457.896H347.851V452.352H349.891V465H347.851V459.696H341.515V465H339.475ZM358.588 465.144C357.244 465.144 356.132 464.872 355.252 464.328C354.372 463.768 353.716 463 353.284 462.024C352.852 461.048 352.636 459.936 352.636 458.688C352.636 457.424 352.86 456.312 353.308 455.352C353.772 454.376 354.444 453.608 355.324 453.048C356.204 452.488 357.284 452.208 358.564 452.208C359.508 452.208 360.332 452.392 361.036 452.76C361.756 453.112 362.348 453.592 362.812 454.2C363.292 454.808 363.636 455.488 363.844 456.24C364.068 456.992 364.164 457.768 364.132 458.568C364.116 458.712 364.108 458.856 364.108 459C364.108 459.144 364.1 459.288 364.084 459.432H354.7C354.764 460.168 354.948 460.832 355.252 461.424C355.556 462.016 355.988 462.488 356.548 462.84C357.108 463.176 357.804 463.344 358.636 463.344C359.052 463.344 359.468 463.296 359.884 463.2C360.316 463.088 360.7 462.904 361.036 462.648C361.388 462.392 361.636 462.048 361.78 461.616H363.868C363.676 462.432 363.316 463.104 362.788 463.632C362.26 464.144 361.628 464.528 360.892 464.784C360.156 465.024 359.388 465.144 358.588 465.144ZM354.748 457.656H362.068C362.052 456.936 361.892 456.304 361.588 455.76C361.284 455.216 360.868 454.792 360.34 454.488C359.828 454.184 359.212 454.032 358.492 454.032C357.708 454.032 357.044 454.2 356.5 454.536C355.972 454.872 355.564 455.312 355.276 455.856C354.988 456.4 354.812 457 354.748 457.656ZM373.342 465V452.352H375.382V457.896H381.718V452.352H383.758V465H381.718V459.696H375.382V465H373.342ZM391.039 465.144C390.463 465.144 389.903 465.072 389.359 464.928C388.831 464.768 388.351 464.536 387.919 464.232C387.503 463.912 387.167 463.52 386.911 463.056C386.671 462.576 386.551 462.024 386.551 461.4C386.551 460.68 386.679 460.072 386.935 459.576C387.207 459.08 387.567 458.688 388.015 458.4C388.463 458.112 388.983 457.904 389.575 457.776C390.167 457.648 390.783 457.584 391.423 457.584H395.143C395.143 456.864 395.039 456.24 394.831 455.712C394.639 455.184 394.319 454.776 393.871 454.488C393.423 454.184 392.831 454.032 392.095 454.032C391.647 454.032 391.231 454.08 390.847 454.176C390.463 454.272 390.135 454.424 389.863 454.632C389.591 454.84 389.391 455.12 389.263 455.472H387.079C387.191 454.896 387.407 454.408 387.727 454.008C388.063 453.592 388.463 453.256 388.927 453C389.407 452.728 389.919 452.528 390.463 452.4C391.007 452.272 391.551 452.208 392.095 452.208C393.311 452.208 394.287 452.456 395.023 452.952C395.759 453.432 396.295 454.12 396.631 455.016C396.967 455.896 397.135 456.944 397.135 458.16V465H395.431L395.311 463.392C394.959 463.872 394.535 464.24 394.039 464.496C393.543 464.752 393.031 464.92 392.503 465C391.991 465.096 391.503 465.144 391.039 465.144ZM391.231 463.344C392.031 463.344 392.719 463.216 393.295 462.96C393.887 462.688 394.343 462.296 394.663 461.784C394.983 461.272 395.143 460.648 395.143 459.912V459.288H392.911C392.383 459.288 391.863 459.296 391.351 459.312C390.839 459.328 390.375 459.392 389.959 459.504C389.543 459.616 389.207 459.808 388.951 460.08C388.711 460.352 388.591 460.744 388.591 461.256C388.591 461.736 388.711 462.128 388.951 462.432C389.207 462.736 389.535 462.968 389.935 463.128C390.351 463.272 390.783 463.344 391.231 463.344ZM400.296 465V452.352H402.336V462.048C402.448 461.824 402.6 461.584 402.792 461.328C402.984 461.056 403.136 460.848 403.248 460.704L409.368 452.352H411.384V465H409.344V455.304C409.216 455.544 409.072 455.768 408.912 455.976C408.768 456.184 408.632 456.376 408.504 456.552L402.288 465H400.296ZM406.008 450.576C404.744 450.576 403.752 450.304 403.032 449.76C402.328 449.216 401.96 448.424 401.928 447.384H403.8C403.832 447.944 404.04 448.352 404.424 448.608C404.824 448.864 405.36 448.992 406.032 448.992C406.704 448.992 407.232 448.864 407.616 448.608C408.016 448.352 408.232 447.944 408.264 447.384H410.136C410.12 448.072 409.944 448.656 409.608 449.136C409.272 449.616 408.8 449.976 408.192 450.216C407.584 450.456 406.856 450.576 406.008 450.576ZM413.512 468.888V463.224C413.976 463.224 414.344 463.096 414.616 462.84C414.904 462.584 415.128 462.248 415.288 461.832C415.448 461.416 415.568 460.968 415.648 460.488C415.728 459.992 415.792 459.52 415.84 459.072C415.92 458.336 415.968 457.608 415.984 456.888C416.016 456.152 416.032 455.568 416.032 455.136C416.048 454.672 416.056 454.208 416.056 453.744C416.056 453.28 416.056 452.816 416.056 452.352H425.032V463.224H426.688V468.888H424.72V465H415.48V468.888H413.512ZM416.752 463.224H422.992V454.152H418C417.984 454.824 417.968 455.576 417.952 456.408C417.936 457.24 417.904 458.016 417.856 458.736C417.84 459.152 417.8 459.624 417.736 460.152C417.688 460.68 417.592 461.216 417.448 461.76C417.304 462.288 417.072 462.776 416.752 463.224ZM434.291 465.144C432.947 465.144 431.835 464.872 430.955 464.328C430.075 463.768 429.419 463 428.987 462.024C428.555 461.048 428.339 459.936 428.339 458.688C428.339 457.424 428.563 456.312 429.011 455.352C429.475 454.376 430.147 453.608 431.027 453.048C431.907 452.488 432.987 452.208 434.267 452.208C435.211 452.208 436.035 452.392 436.739 452.76C437.459 453.112 438.051 453.592 438.515 454.2C438.995 454.808 439.339 455.488 439.547 456.24C439.771 456.992 439.867 457.768 439.835 458.568C439.819 458.712 439.811 458.856 439.811 459C439.811 459.144 439.803 459.288 439.787 459.432H430.403C430.467 460.168 430.651 460.832 430.955 461.424C431.259 462.016 431.691 462.488 432.251 462.84C432.811 463.176 433.507 463.344 434.339 463.344C434.755 463.344 435.171 463.296 435.587 463.2C436.019 463.088 436.403 462.904 436.739 462.648C437.091 462.392 437.339 462.048 437.483 461.616H439.571C439.379 462.432 439.019 463.104 438.491 463.632C437.963 464.144 437.331 464.528 436.595 464.784C435.859 465.024 435.091 465.144 434.291 465.144ZM430.451 457.656H437.771C437.755 456.936 437.595 456.304 437.291 455.76C436.987 455.216 436.571 454.792 436.043 454.488C435.531 454.184 434.915 454.032 434.195 454.032C433.411 454.032 432.747 454.2 432.203 454.536C431.675 454.872 431.267 455.312 430.979 455.856C430.691 456.4 430.515 457 430.451 457.656ZM442.577 465V452.352H444.617V457.896H450.953V452.352H452.993V465H450.953V459.696H444.617V465H442.577ZM460.273 465.144C459.697 465.144 459.137 465.072 458.593 464.928C458.065 464.768 457.585 464.536 457.153 464.232C456.737 463.912 456.401 463.52 456.145 463.056C455.905 462.576 455.785 462.024 455.785 461.4C455.785 460.68 455.913 460.072 456.169 459.576C456.441 459.08 456.801 458.688 457.249 458.4C457.697 458.112 458.217 457.904 458.809 457.776C459.401 457.648 460.017 457.584 460.657 457.584H464.377C464.377 456.864 464.273 456.24 464.065 455.712C463.873 455.184 463.553 454.776 463.105 454.488C462.657 454.184 462.065 454.032 461.329 454.032C460.881 454.032 460.465 454.08 460.081 454.176C459.697 454.272 459.369 454.424 459.097 454.632C458.825 454.84 458.625 455.12 458.497 455.472H456.313C456.425 454.896 456.641 454.408 456.961 454.008C457.297 453.592 457.697 453.256 458.161 453C458.641 452.728 459.153 452.528 459.697 452.4C460.241 452.272 460.785 452.208 461.329 452.208C462.545 452.208 463.521 452.456 464.257 452.952C464.993 453.432 465.529 454.12 465.865 455.016C466.201 455.896 466.369 456.944 466.369 458.16V465H464.665L464.545 463.392C464.193 463.872 463.769 464.24 463.273 464.496C462.777 464.752 462.265 464.92 461.737 465C461.225 465.096 460.737 465.144 460.273 465.144ZM460.465 463.344C461.265 463.344 461.953 463.216 462.529 462.96C463.121 462.688 463.577 462.296 463.897 461.784C464.217 461.272 464.377 460.648 464.377 459.912V459.288H462.145C461.617 459.288 461.097 459.296 460.585 459.312C460.073 459.328 459.609 459.392 459.193 459.504C458.777 459.616 458.441 459.808 458.185 460.08C457.945 460.352 457.825 460.744 457.825 461.256C457.825 461.736 457.945 462.128 458.185 462.432C458.441 462.736 458.769 462.968 459.169 463.128C459.585 463.272 460.017 463.344 460.465 463.344Z" fill="black"/>
<path d="M613.578 245.579V228.111" stroke="black" stroke-width="2.1628" stroke-miterlimit="10" stroke-linecap="round" stroke-linejoin="round"/>
<path d="M601.35 250.66L588.964 238.274" stroke="black" stroke-width="2.1628" stroke-miterlimit="10" stroke-linecap="round" stroke-linejoin="round"/>
<path d="M596.269 262.888H578.801" stroke="black" stroke-width="2.1628" stroke-miterlimit="10" stroke-linecap="round" stroke-linejoin="round"/>
<path d="M601.35 275.115L588.964 287.502" stroke="black" stroke-width="2.1628" stroke-miterlimit="10" stroke-linecap="round" stroke-linejoin="round"/>
<path d="M613.578 280.197V297.665" stroke="black" stroke-width="2.1628" stroke-miterlimit="10" stroke-linecap="round" stroke-linejoin="round"/>
<path d="M625.806 275.115L638.192 287.502" stroke="black" stroke-width="2.1628" stroke-miterlimit="10" stroke-linecap="round" stroke-linejoin="round"/>
<path d="M630.887 262.888H648.355" stroke="black" stroke-width="2.1628" stroke-miterlimit="10" stroke-linecap="round" stroke-linejoin="round"/>
<path d="M625.806 250.66L638.192 238.274" stroke="black" stroke-width="2.1628" stroke-miterlimit="10" stroke-linecap="round" stroke-linejoin="round"/>
<path d="M63.812 332.919V320.215" stroke="black" stroke-width="2.1628" stroke-miterlimit="10" stroke-linecap="round" stroke-linejoin="round"/>
<path d="M54.9193 336.571L45.8677 327.52" stroke="black" stroke-width="2.1628" stroke-miterlimit="10" stroke-linecap="round" stroke-linejoin="round"/>
<path d="M51.267 345.305H38.563" stroke="black" stroke-width="2.1628" stroke-miterlimit="10" stroke-linecap="round" stroke-linejoin="round"/>
<path d="M54.9193 354.198L45.8677 363.249" stroke="black" stroke-width="2.1628" stroke-miterlimit="10" stroke-linecap="round" stroke-linejoin="round"/>
<path d="M63.812 357.85V370.554" stroke="black" stroke-width="2.1628" stroke-miterlimit="10" stroke-linecap="round" stroke-linejoin="round"/>
<path d="M72.5464 354.198L81.598 363.249" stroke="black" stroke-width="2.1628" stroke-miterlimit="10" stroke-linecap="round" stroke-linejoin="round"/>
<path d="M76.1987 345.305H88.9027" stroke="black" stroke-width="2.1628" stroke-miterlimit="10" stroke-linecap="round" stroke-linejoin="round"/>
<path d="M72.5464 336.571L81.598 327.52" stroke="black" stroke-width="2.1628" stroke-miterlimit="10" stroke-linecap="round" stroke-linejoin="round"/>
<path d="M406.662 71.2163V58.5123" stroke="black" stroke-width="2.1628" stroke-miterlimit="10" stroke-linecap="round" stroke-linejoin="round"/>
<path d="M397.769 74.8687L388.876 65.8171" stroke="black" stroke-width="2.1628" stroke-miterlimit="10" stroke-linecap="round" stroke-linejoin="round"/>
<path d="M394.117 83.6028H381.413" stroke="black" stroke-width="2.1628" stroke-miterlimit="10" stroke-linecap="round" stroke-linejoin="round"/>
<path d="M397.769 92.4955L388.876 101.388" stroke="black" stroke-width="2.1628" stroke-miterlimit="10" stroke-linecap="round" stroke-linejoin="round"/>
<path d="M406.662 96.1479V108.852" stroke="black" stroke-width="2.1628" stroke-miterlimit="10" stroke-linecap="round" stroke-linejoin="round"/>
<path d="M415.555 92.4955L424.447 101.388" stroke="black" stroke-width="2.1628" stroke-miterlimit="10" stroke-linecap="round" stroke-linejoin="round"/>
<path d="M419.207 83.6028H431.752" stroke="black" stroke-width="2.1628" stroke-miterlimit="10" stroke-linecap="round" stroke-linejoin="round"/>
<path d="M415.555 74.8687L424.447 65.8171" stroke="black" stroke-width="2.1628" stroke-miterlimit="10" stroke-linecap="round" stroke-linejoin="round"/>
<path d="M561.795 423H127.001V491.443H561.795V423Z" stroke="black" stroke-width="2.4187" stroke-miterlimit="10" stroke-linecap="round" stroke-linejoin="round"/>
<path d="M160.521 177.453V122.667H445.567V244.467" stroke="black" stroke-width="2.1628" stroke-miterlimit="10" stroke-linecap="round" stroke-linejoin="round"/>
<path d="M345.047 83.6027V152.363H534.178V183.488" stroke="black" stroke-width="2.1628" stroke-miterlimit="10" stroke-linecap="round" stroke-linejoin="round"/>
<path d="M167.35 184.282C167.35 188.093 164.333 191.11 160.522 191.11C156.711 191.11 153.693 188.093 153.693 184.282C153.693 180.471 156.711 177.453 160.522 177.453C164.333 177.453 167.35 180.471 167.35 184.282Z" stroke="black" stroke-width="2.1628" stroke-miterlimit="10" stroke-linecap="round" stroke-linejoin="round"/>
<path d="M345.047 83.6027C348.818 83.6027 351.876 80.5455 351.876 76.7743C351.876 73.0031 348.818 69.9459 345.047 69.9459C341.276 69.9459 338.219 73.0031 338.219 76.7743C338.219 80.5455 341.276 83.6027 345.047 83.6027Z" stroke="black" stroke-width="2.1628" stroke-miterlimit="10" stroke-linecap="round" stroke-linejoin="round"/>
<path d="M540.848 191.11C540.848 194.922 537.83 197.939 534.019 197.939C530.208 197.939 527.191 194.922 527.191 191.11C527.191 187.299 530.208 184.282 534.019 184.282C537.83 184.282 540.848 187.299 540.848 191.11Z" stroke="black" stroke-width="2.1628" stroke-miterlimit="10" stroke-linecap="round" stroke-linejoin="round"/>
<path d="M452.396 252.407C452.396 256.218 449.379 259.236 445.568 259.236C441.756 259.236 438.739 256.218 438.739 252.407C438.739 248.596 441.756 245.579 445.568 245.579C449.379 245.579 452.396 248.596 452.396 252.407Z" stroke="black" stroke-width="2.1628" stroke-miterlimit="10" stroke-linecap="round" stroke-linejoin="round"/>
<path d="M116.217 388.657L100.178 404.696" stroke="black" stroke-width="2.1628" stroke-miterlimit="10" stroke-linecap="round" stroke-linejoin="round"/>
<path d="M100.178 388.657L116.217 404.696" stroke="black" stroke-width="2.1628" stroke-miterlimit="10" stroke-linecap="round" stroke-linejoin="round"/>
<path d="M124.315 154.904L108.118 170.943" stroke="black" stroke-width="2.1628" stroke-miterlimit="10" stroke-linecap="round" stroke-linejoin="round"/>
<path d="M108.118 154.904L124.315 170.943" stroke="black" stroke-width="2.1628" stroke-miterlimit="10" stroke-linecap="round" stroke-linejoin="round"/>
<path d="M646.291 337.365L630.093 353.404" stroke="black" stroke-width="2.1628" stroke-miterlimit="10" stroke-linecap="round" stroke-linejoin="round"/>
<path d="M630.093 337.365L646.291 353.404" stroke="black" stroke-width="2.1628" stroke-miterlimit="10" stroke-linecap="round" stroke-linejoin="round"/>
<path d="M189.582 63.1175C184.501 63.1175 179.737 65.0232 176.084 68.0404C172.432 56.7656 161.792 48.6667 149.406 48.6667C135.431 48.6667 123.839 58.83 121.616 72.1692C120.187 71.6928 118.599 71.534 117.011 71.534C107.8 71.534 100.178 78.9975 100.178 88.3667C100.178 96.9419 106.53 103.929 114.787 105.041V105.2H189.582C201.175 105.2 210.544 95.8304 210.544 84.238C210.544 72.4868 201.175 63.1175 189.582 63.1175Z" stroke="black" stroke-width="2.2614" stroke-miterlimit="10" stroke-linecap="round" stroke-linejoin="round"/>
<path d="M578.801 169.831C582.453 169.831 585.947 171.102 588.647 173.325C591.346 165.226 598.969 159.35 608.02 159.35C618.183 159.35 626.6 166.655 628.188 176.342C629.299 176.024 630.411 175.866 631.523 175.866C638.192 175.866 643.75 181.265 643.75 188.093C643.75 194.286 639.145 199.368 633.111 200.162V200.321H578.801C570.385 200.321 563.556 193.492 563.556 185.076C563.556 176.66 570.385 169.831 578.801 169.831Z" stroke="black" stroke-width="2.1628" stroke-miterlimit="10" stroke-linecap="round" stroke-linejoin="round"/>
<path d="M653.755 458.371C650.579 458.371 647.72 459.482 645.497 461.388C643.274 454.56 636.763 449.637 629.141 449.637C620.565 449.637 613.578 455.83 612.149 463.929C611.196 463.611 610.243 463.452 609.291 463.452C603.574 463.452 599.127 468.058 599.127 473.616C599.127 478.856 602.939 483.144 608.02 483.779V483.938H653.596C660.583 483.938 666.459 478.221 666.459 471.075C666.459 464.088 660.742 458.371 653.755 458.371Z" stroke="black" stroke-width="2.1628" stroke-miterlimit="10" stroke-linecap="round" stroke-linejoin="round"/>
<path d="M35.2285 431.375C38.8809 431.375 42.3745 432.645 45.0741 434.868C47.7737 426.77 55.3961 420.894 64.4477 420.894C74.6109 420.894 83.0273 428.199 84.6153 437.886C85.7269 437.568 86.8385 437.409 87.9501 437.409C94.6197 437.409 100.178 442.808 100.178 449.637C100.178 455.83 95.5725 460.912 89.5381 461.706V461.864H35.2285C26.8121 461.864 19.9837 455.036 19.9837 446.62C19.8249 438.203 26.6533 431.375 35.2285 431.375Z" stroke="black" stroke-width="2.1628" stroke-miterlimit="10" stroke-linecap="round" stroke-linejoin="round"/>
<path d="M210.543 52.9543C210.543 52.9543 306.459 -25.3341 436.992 10.7135C574.037 48.5079 601.35 146.329 601.35 146.329" stroke="black" stroke-width="2.1628" stroke-miterlimit="10" stroke-linecap="round" stroke-linejoin="round" stroke-dasharray="3.27 3.27"/>
<path d="M65.5593 280.356C28.4001 286.073 9.66168 365.155 51.4261 396.439" stroke="black" stroke-width="2.0166" stroke-miterlimit="10" stroke-linecap="round" stroke-linejoin="round" stroke-dasharray="3.05 3.05"/>
<path d="M534.178 508.234C534.178 508.234 597.857 536.024 625.806 497.277" stroke="black" stroke-width="2.1628" stroke-miterlimit="10" stroke-linecap="round" stroke-linejoin="round" stroke-dasharray="3.27 3.27"/>
<path d="M230.87 191.11V150.775" stroke="black" stroke-width="2.1628" stroke-miterlimit="10" stroke-linecap="round" stroke-linejoin="round"/>
<path d="M221.183 191.11V170.943" stroke="black" stroke-width="2.1628" stroke-miterlimit="10" stroke-linecap="round" stroke-linejoin="round"/>
<path d="M378.872 200.321V170.943" stroke="black" stroke-width="2.1628" stroke-miterlimit="10" stroke-linecap="round" stroke-linejoin="round"/>
<path d="M367.756 197.78V185.711" stroke="black" stroke-width="2.1628" stroke-miterlimit="10" stroke-linecap="round" stroke-linejoin="round"/>
<path d="M358.069 197.78V177.453" stroke="black" stroke-width="2.1628" stroke-miterlimit="10" stroke-linecap="round" stroke-linejoin="round"/>
<path d="M240.239 191.11V170.943" stroke="black" stroke-width="2.1628" stroke-miterlimit="10" stroke-linecap="round" stroke-linejoin="round"/>
<path d="M507.023 196.668V187.617" stroke="black" stroke-width="2.1628" stroke-miterlimit="10" stroke-linecap="round" stroke-linejoin="round"/>
<path d="M497.336 196.668V174.754" stroke="black" stroke-width="2.1628" stroke-miterlimit="10" stroke-linecap="round" stroke-linejoin="round"/>
<path d="M516.393 196.668V180.947" stroke="black" stroke-width="2.1628" stroke-miterlimit="10" stroke-linecap="round" stroke-linejoin="round"/>
</svg>
