<svg width="40" height="40" viewBox="0 0 40 40" fill="none" xmlns="http://www.w3.org/2000/svg">
<rect width="40" height="40" rx="8" fill="#5E5BB3"/>
<path fill-rule="evenodd" clip-rule="evenodd" d="M19.9543 13.5417H22.5457C23.6854 13.5417 24.604 13.5416 25.3265 13.6388C26.0766 13.7396 26.7081 13.9554 27.2097 14.457C27.7113 14.9586 27.9271 15.5901 28.0279 16.3402C28.125 17.0627 28.125 17.9813 28.125 19.1209V23.3791C28.125 24.5187 28.125 25.4373 28.0279 26.1598C27.9271 26.9099 27.7113 27.5415 27.2097 28.043C26.7081 28.5446 26.0766 28.7604 25.3265 28.8612C24.604 28.9584 23.6854 28.9584 22.5457 28.9583H19.9543C18.8146 28.9584 17.896 28.9584 17.1735 28.8612C16.4235 28.7604 15.7919 28.5446 15.2903 28.043C14.7887 27.5415 14.573 26.9099 14.4721 26.1598C14.375 25.4373 14.375 24.5187 14.375 23.3791V19.1209C14.375 17.9813 14.375 17.0627 14.4721 16.3402C14.573 15.5901 14.7887 14.9586 15.2903 14.457C15.7919 13.9554 16.4235 13.7396 17.1735 13.6388C17.896 13.5416 18.8146 13.5417 19.9543 13.5417ZM17.3401 14.8776C16.7286 14.9598 16.4048 15.1102 16.1742 15.3408C15.9435 15.5715 15.7932 15.8953 15.711 16.5068C15.6263 17.1362 15.625 17.9705 15.625 19.1667V23.3333C15.625 24.5295 15.6263 25.3638 15.711 25.9932C15.7932 26.6047 15.9435 26.9285 16.1742 27.1592C16.4048 27.3898 16.7286 27.5402 17.3401 27.6224C17.9696 27.707 18.8038 27.7083 20 27.7083H22.5C23.6962 27.7083 24.5304 27.707 25.1599 27.6224C25.7714 27.5402 26.0952 27.3898 26.3258 27.1592C26.5565 26.9285 26.7068 26.6047 26.789 25.9932C26.8737 25.3638 26.875 24.5295 26.875 23.3333V19.1667C26.875 17.9705 26.8737 17.1362 26.789 16.5068C26.7068 15.8953 26.5565 15.5715 26.3258 15.3408C26.0952 15.1102 25.7714 14.9598 25.1599 14.8776C24.5304 14.793 23.6962 14.7917 22.5 14.7917H20C18.8038 14.7917 17.9696 14.793 17.3401 14.8776Z" fill="white"/>
<path fill-rule="evenodd" clip-rule="evenodd" d="M19.1197 11.0417L22.5 11.0417C24.2259 11.0417 25.625 12.4408 25.625 14.1667H24.375C24.375 13.1311 23.5355 12.2917 22.5 12.2917H19.1667C17.5777 12.2917 16.4488 12.293 15.5924 12.4081C14.754 12.5209 14.2709 12.7322 13.9183 13.0849C13.5656 13.4376 13.3542 13.9206 13.2415 14.759C13.1263 15.6154 13.125 16.7443 13.125 18.3333V23.3333C13.125 24.3689 13.9645 25.2083 15 25.2083V26.4583C13.2741 26.4583 11.875 25.0592 11.875 23.3333L11.875 18.2863C11.875 16.7549 11.875 15.5418 12.0026 14.5925C12.134 13.6155 12.4107 12.8247 13.0344 12.201C13.658 11.5774 14.4488 11.3006 15.4258 11.1693C16.3752 11.0416 17.5882 11.0417 19.1197 11.0417Z" fill="white"/>
</svg>
