<svg width="16" height="16" viewBox="0 0 16 16" fill="none" xmlns="http://www.w3.org/2000/svg">
<path fill-rule="evenodd" clip-rule="evenodd" d="M0.26035 0.260349C0.607482 -0.0867832 1.1703 -0.0867831 1.51743 0.26035L8.00003 6.74295L14.4826 0.260407C14.8297 -0.0867256 15.3925 -0.0867256 15.7396 0.260407C16.0868 0.60754 16.0868 1.17035 15.7396 1.51749L9.25711 8.00003L15.7396 14.4825C16.0867 14.8296 16.0867 15.3925 15.7396 15.7396C15.3925 16.0867 14.8296 16.0867 14.4825 15.7396L8.00003 9.25711L1.51749 15.7396C1.17036 16.0868 0.607543 16.0868 0.26041 15.7396C-0.0867228 15.3925 -0.0867228 14.8297 0.26041 14.4826L6.74295 8.00003L0.260349 1.51743C-0.0867832 1.1703 -0.0867831 0.607482 0.26035 0.260349Z" fill="#373739"/>
</svg>
