<svg width="90" height="90" viewBox="0 0 90 90" fill="none" xmlns="http://www.w3.org/2000/svg">
<path fill-rule="evenodd" clip-rule="evenodd" d="M89.4081 45C89.4081 69.5258 69.526 89.4079 45.0002 89.4079C20.4744 89.4079 0.592285 69.5258 0.592285 45C0.592285 20.4742 20.4744 0.592102 45.0002 0.592102C69.526 0.592102 89.4081 20.4742 89.4081 45ZM62.898 31.5429C64.1987 32.8436 64.1987 34.9524 62.898 36.2531L40.6941 58.4571C39.3934 59.7577 37.2846 59.7577 35.9839 58.4571L27.1023 49.5755C25.8017 48.2748 25.8017 46.166 27.1023 44.8653C28.403 43.5646 30.5118 43.5646 31.8125 44.8653L38.339 51.3918L48.2634 41.4674L58.1879 31.5429C59.4885 30.2423 61.5974 30.2423 62.898 31.5429Z" fill="#65DC7F"/>
</svg>
