<svg width="90" height="90" viewBox="0 0 90 90" fill="none" xmlns="http://www.w3.org/2000/svg">
<path fill-rule="evenodd" clip-rule="evenodd" d="M26.5248 8.9293C35.5413 3.6431 40.0496 1 45 1C49.9504 1 54.4587 3.6431 63.4752 8.9293L66.5248 10.7172C75.5413 16.0034 80.0496 18.6465 82.5248 23C85 27.3535 85 32.6397 85 43.2121V46.7879C85 57.3603 85 62.6465 82.5248 67C80.0496 71.3535 75.5413 73.9966 66.5248 79.2828L63.4752 81.0707C54.4587 86.3569 49.9504 89 45 89C40.0496 89 35.5413 86.3569 26.5248 81.0707L23.4752 79.2828C14.4587 73.9966 9.95042 71.3535 7.47521 67C5 62.6465 5 57.3603 5 46.7879V43.2121C5 32.6397 5 27.3535 7.47521 23C9.95042 18.6465 14.4587 16.0034 23.4752 10.7172L26.5248 8.9293ZM49.4444 62.6C49.4444 65.0301 47.4546 67 45 67C42.5454 67 40.5556 65.0301 40.5556 62.6C40.5556 60.1699 42.5454 58.2 45 58.2C47.4546 58.2 49.4444 60.1699 49.4444 62.6ZM45 19.7C46.841 19.7 48.3333 21.1775 48.3333 23V49.4C48.3333 51.2225 46.841 52.7 45 52.7C43.1591 52.7 41.6667 51.2225 41.6667 49.4V23C41.6667 21.1775 43.1591 19.7 45 19.7Z" fill="#EE3441"/>
</svg>
